<svg width="52" height="52" viewBox="0 0 52 52" fill="none" xmlns="http://www.w3.org/2000/svg">
<path d="M26.0002 4.8678C20.8554 4.86801 15.8786 6.69888 11.9601 10.0328C8.04173 13.3667 5.43747 17.9861 4.61334 23.0645C3.78921 28.1429 4.79899 33.3488 7.462 37.7508C10.125 42.1527 14.2675 45.4635 19.1482 47.0907C20.2315 47.2803 20.6378 46.6303 20.6378 46.0615C20.6378 45.547 20.6107 43.8407 20.6107 42.0261C15.1669 43.0282 13.7586 40.6991 13.3252 39.4804C12.8444 38.295 12.0822 37.2446 11.1044 36.4199C10.3461 36.0136 9.26272 35.0116 11.0773 34.9845C11.7702 35.0597 12.4347 35.3008 13.0146 35.6874C13.5945 36.074 14.0726 36.5946 14.4086 37.2053C14.7049 37.7376 15.1034 38.2063 15.5811 38.5844C16.0589 38.9624 16.6066 39.2425 17.1928 39.4086C17.779 39.5746 18.3922 39.6234 18.9973 39.552C19.6024 39.4807 20.1874 39.2906 20.7189 38.9928C20.8127 37.8913 21.3036 36.8614 22.1002 36.0949C17.2794 35.5533 12.2419 33.6844 12.2419 25.397C12.2114 23.2437 13.006 21.1603 14.4627 19.5741C13.8003 17.7026 13.8778 15.6487 14.6794 13.8324C14.6794 13.8324 16.4939 13.2637 20.6377 16.0533C24.183 15.0782 27.9258 15.0782 31.4711 16.0533C35.6148 13.2366 37.4294 13.8324 37.4294 13.8324C38.231 15.6487 38.3086 17.7026 37.6461 19.5741C39.1071 21.1576 39.9024 23.2428 39.8669 25.397C39.8669 33.7115 34.8023 35.5533 29.9815 36.0949C30.4985 36.619 30.8968 37.2483 31.1491 37.9399C31.4015 38.6315 31.502 39.3693 31.444 40.1033C31.444 43.0012 31.4169 45.3303 31.4169 46.0616C31.4169 46.6304 31.8231 47.3074 32.9065 47.0908C37.7786 45.4503 41.9091 42.1318 44.5608 37.7276C47.2124 33.3233 48.2126 28.1201 47.3828 23.0466C46.5529 17.9732 43.9471 13.3598 40.0304 10.0299C36.1137 6.70004 31.1411 4.87047 26.0002 4.8678Z" fill="#D9D9D9"/>
</svg>
