<svg width="257" height="19" viewBox="0 0 257 19" fill="none" xmlns="http://www.w3.org/2000/svg">
<path d="M19.092 14.042C18.9613 14.042 18.868 14.028 18.812 14C18.756 13.972 18.728 13.8927 18.728 13.762V12.768C18.728 12.6653 18.7513 12.5813 18.798 12.516C18.8447 12.4413 18.9007 12.3667 18.966 12.292L21.01 9.828C21.766 8.91333 22.312 8.16667 22.648 7.588C22.984 7.00933 23.152 6.54733 23.152 6.202C23.152 5.81933 23.0493 5.516 22.844 5.292C22.648 5.068 22.3633 4.93733 21.99 4.9C21.6353 4.86267 21.276 4.9 20.912 5.012C20.548 5.124 20.142 5.306 19.694 5.558C19.5633 5.63267 19.47 5.66067 19.414 5.642C19.3673 5.614 19.3347 5.558 19.316 5.474L19.064 4.242C19.0453 4.16733 19.0453 4.10667 19.064 4.06C19.092 4.01333 19.162 3.95267 19.274 3.878C19.4513 3.75667 19.652 3.64933 19.876 3.556C20.1 3.45333 20.3287 3.36933 20.562 3.304C20.8047 3.22933 21.0427 3.178 21.276 3.15C21.5093 3.11267 21.7193 3.094 21.906 3.094C22.354 3.094 22.774 3.15933 23.166 3.29C23.5673 3.42067 23.9127 3.61667 24.202 3.878C24.4913 4.13 24.72 4.44733 24.888 4.83C25.056 5.21267 25.14 5.656 25.14 6.16C25.14 6.59867 25.0467 7.03733 24.86 7.476C24.6733 7.91467 24.4447 8.344 24.174 8.764C23.9033 9.17467 23.6093 9.57133 23.292 9.954C22.984 10.3273 22.704 10.668 22.452 10.976C22.2933 11.1813 22.102 11.4053 21.878 11.648C21.6633 11.8907 21.4673 12.1147 21.29 12.32H24.986C25.126 12.32 25.21 12.3433 25.238 12.39C25.2753 12.4367 25.294 12.5253 25.294 12.656V13.706C25.294 13.846 25.2753 13.9393 25.238 13.986C25.2007 14.0233 25.1167 14.042 24.986 14.042H19.092ZM30.9142 14.196C30.2889 14.196 29.7476 14.0653 29.2902 13.804C28.8329 13.5333 28.4549 13.1553 28.1562 12.67C27.8669 12.1847 27.6522 11.6013 27.5122 10.92C27.3722 10.2293 27.3022 9.464 27.3022 8.624C27.3022 8.25067 27.3209 7.854 27.3582 7.434C27.3956 7.014 27.4609 6.59867 27.5542 6.188C27.6569 5.77733 27.7922 5.38533 27.9602 5.012C28.1376 4.62933 28.3569 4.29333 28.6182 4.004C28.8889 3.71467 29.2109 3.486 29.5842 3.318C29.9669 3.14067 30.4102 3.052 30.9142 3.052C31.4182 3.052 31.8569 3.14067 32.2302 3.318C32.6036 3.486 32.9209 3.71467 33.1822 4.004C33.4529 4.29333 33.6722 4.62933 33.8402 5.012C34.0082 5.38533 34.1389 5.782 34.2322 6.202C34.3349 6.61267 34.4049 7.028 34.4422 7.448C34.4796 7.868 34.4982 8.26 34.4982 8.624C34.4982 9.464 34.4282 10.2247 34.2882 10.906C34.1482 11.5873 33.9289 12.1753 33.6302 12.67C33.3409 13.1553 32.9722 13.5333 32.5242 13.804C32.0762 14.0653 31.5396 14.196 30.9142 14.196ZM30.9142 4.872C30.6809 4.872 30.4616 4.93267 30.2562 5.054C30.0509 5.17533 29.8689 5.38533 29.7102 5.684C29.5609 5.97333 29.4396 6.36067 29.3462 6.846C29.2622 7.322 29.2202 7.91467 29.2202 8.624C29.2202 9.34267 29.2622 9.94467 29.3462 10.43C29.4396 10.906 29.5609 11.2887 29.7102 11.578C29.8689 11.8673 30.0509 12.0727 30.2562 12.194C30.4616 12.3153 30.6809 12.376 30.9142 12.376C31.1476 12.376 31.3669 12.3153 31.5722 12.194C31.7776 12.0727 31.9549 11.8673 32.1042 11.578C32.2629 11.2887 32.3842 10.906 32.4682 10.43C32.5616 9.94467 32.6082 9.34267 32.6082 8.624C32.6082 7.91467 32.5616 7.322 32.4682 6.846C32.3842 6.36067 32.2629 5.97333 32.1042 5.684C31.9549 5.38533 31.7776 5.17533 31.5722 5.054C31.3669 4.93267 31.1476 4.872 30.9142 4.872ZM36.0725 14.042C35.9418 14.042 35.8485 14.028 35.7925 14C35.7365 13.972 35.7085 13.8927 35.7085 13.762V12.768C35.7085 12.6653 35.7318 12.5813 35.7785 12.516C35.8251 12.4413 35.8811 12.3667 35.9465 12.292L37.9905 9.828C38.7465 8.91333 39.2925 8.16667 39.6285 7.588C39.9645 7.00933 40.1325 6.54733 40.1325 6.202C40.1325 5.81933 40.0298 5.516 39.8245 5.292C39.6285 5.068 39.3438 4.93733 38.9705 4.9C38.6158 4.86267 38.2565 4.9 37.8925 5.012C37.5285 5.124 37.1225 5.306 36.6745 5.558C36.5438 5.63267 36.4505 5.66067 36.3945 5.642C36.3478 5.614 36.3151 5.558 36.2965 5.474L36.0445 4.242C36.0258 4.16733 36.0258 4.10667 36.0445 4.06C36.0725 4.01333 36.1425 3.95267 36.2545 3.878C36.4318 3.75667 36.6325 3.64933 36.8565 3.556C37.0805 3.45333 37.3091 3.36933 37.5425 3.304C37.7851 3.22933 38.0231 3.178 38.2565 3.15C38.4898 3.11267 38.6998 3.094 38.8865 3.094C39.3345 3.094 39.7545 3.15933 40.1465 3.29C40.5478 3.42067 40.8931 3.61667 41.1825 3.878C41.4718 4.13 41.7005 4.44733 41.8685 4.83C42.0365 5.21267 42.1205 5.656 42.1205 6.16C42.1205 6.59867 42.0271 7.03733 41.8405 7.476C41.6538 7.91467 41.4251 8.344 41.1545 8.764C40.8838 9.17467 40.5898 9.57133 40.2725 9.954C39.9645 10.3273 39.6845 10.668 39.4325 10.976C39.2738 11.1813 39.0825 11.4053 38.8585 11.648C38.6438 11.8907 38.4478 12.1147 38.2705 12.32H41.9665C42.1065 12.32 42.1905 12.3433 42.2185 12.39C42.2558 12.4367 42.2745 12.5253 42.2745 12.656V13.706C42.2745 13.846 42.2558 13.9393 42.2185 13.986C42.1811 14.0233 42.0971 14.042 41.9665 14.042H36.0725ZM44.5627 14.042C44.432 14.042 44.3387 14.028 44.2827 14C44.2267 13.972 44.1987 13.8927 44.1987 13.762V12.768C44.1987 12.6653 44.222 12.5813 44.2687 12.516C44.3154 12.4413 44.3714 12.3667 44.4367 12.292L46.4807 9.828C47.2367 8.91333 47.7827 8.16667 48.1187 7.588C48.4547 7.00933 48.6227 6.54733 48.6227 6.202C48.6227 5.81933 48.52 5.516 48.3147 5.292C48.1187 5.068 47.834 4.93733 47.4607 4.9C47.106 4.86267 46.7467 4.9 46.3827 5.012C46.0187 5.124 45.6127 5.306 45.1647 5.558C45.034 5.63267 44.9407 5.66067 44.8847 5.642C44.838 5.614 44.8054 5.558 44.7867 5.474L44.5347 4.242C44.516 4.16733 44.516 4.10667 44.5347 4.06C44.5627 4.01333 44.6327 3.95267 44.7447 3.878C44.922 3.75667 45.1227 3.64933 45.3467 3.556C45.5707 3.45333 45.7994 3.36933 46.0327 3.304C46.2754 3.22933 46.5134 3.178 46.7467 3.15C46.98 3.11267 47.19 3.094 47.3767 3.094C47.8247 3.094 48.2447 3.15933 48.6367 3.29C49.038 3.42067 49.3834 3.61667 49.6727 3.878C49.962 4.13 50.1907 4.44733 50.3587 4.83C50.5267 5.21267 50.6107 5.656 50.6107 6.16C50.6107 6.59867 50.5174 7.03733 50.3307 7.476C50.144 7.91467 49.9154 8.344 49.6447 8.764C49.374 9.17467 49.08 9.57133 48.7627 9.954C48.4547 10.3273 48.1747 10.668 47.9227 10.976C47.764 11.1813 47.5727 11.4053 47.3487 11.648C47.134 11.8907 46.938 12.1147 46.7607 12.32H50.4567C50.5967 12.32 50.6807 12.3433 50.7087 12.39C50.746 12.4367 50.7647 12.5253 50.7647 12.656V13.706C50.7647 13.846 50.746 13.9393 50.7087 13.986C50.6714 14.0233 50.5874 14.042 50.4567 14.042H44.5627ZM63.3009 11.55H61.8869C61.7843 11.55 61.7143 11.5313 61.6769 11.494C61.6489 11.4567 61.6349 11.3867 61.6349 11.284V7.49H58.7929C58.7089 7.49 58.6436 7.476 58.5969 7.448C58.5503 7.41067 58.5269 7.34067 58.5269 7.238V6.216C58.5269 6.11333 58.5503 6.04333 58.5969 6.006C58.6436 5.96867 58.7089 5.95 58.7929 5.95H61.6349V5.04H58.7929C58.7089 5.04 58.6436 5.026 58.5969 4.998C58.5503 4.96067 58.5269 4.89067 58.5269 4.788V3.78C58.5269 3.668 58.5503 3.59333 58.5969 3.556C58.6436 3.51867 58.7089 3.5 58.7929 3.5H61.6349V2.338C61.6349 2.16067 61.7189 2.072 61.8869 2.072H63.3009C63.4783 2.072 63.5669 2.16067 63.5669 2.338V11.284C63.5669 11.3867 63.5483 11.4567 63.5109 11.494C63.4736 11.5313 63.4036 11.55 63.3009 11.55ZM60.1929 9.66C59.7729 9.76267 59.3109 9.84667 58.8069 9.912C58.3123 9.968 57.8083 10.01 57.2949 10.038C56.7909 10.066 56.3009 10.0847 55.8249 10.094C55.3583 10.094 54.9429 10.08 54.5789 10.052C54.1869 10.0147 53.9116 9.92133 53.7529 9.772C53.5943 9.62267 53.5149 9.37067 53.5149 9.016V3.01C53.5149 2.82333 53.6036 2.73 53.7809 2.73H55.1669C55.3629 2.73 55.4609 2.82333 55.4609 3.01V8.204C55.4609 8.29733 55.4749 8.36267 55.5029 8.4C55.5309 8.428 55.6009 8.44667 55.7129 8.456C56.0303 8.46533 56.3663 8.46533 56.7209 8.456C57.0756 8.44667 57.4349 8.43267 57.7989 8.414C58.1629 8.39533 58.5269 8.36733 58.8909 8.33C59.2549 8.28333 59.6049 8.22733 59.9409 8.162C60.0529 8.14333 60.1276 8.148 60.1649 8.176C60.2023 8.204 60.2256 8.24133 60.2349 8.288L60.4169 9.38C60.4356 9.52933 60.3609 9.62267 60.1929 9.66ZM63.7769 15.274H56.2309C56.0349 15.274 55.8716 15.2553 55.7409 15.218C55.6196 15.19 55.5216 15.1387 55.4469 15.064C55.3816 14.9893 55.3349 14.8867 55.3069 14.756C55.2789 14.6253 55.2649 14.462 55.2649 14.266V11.284C55.2649 11.088 55.3583 10.99 55.5449 10.99H56.9169C57.1129 10.99 57.2109 11.088 57.2109 11.284V13.468C57.2109 13.608 57.2856 13.678 57.4349 13.678H63.7769C63.8516 13.678 63.9169 13.6967 63.9729 13.734C64.0289 13.762 64.0569 13.8273 64.0569 13.93V15.022C64.0569 15.1527 64.0289 15.2273 63.9729 15.246C63.9169 15.2647 63.8516 15.274 63.7769 15.274ZM75.0428 4.788C74.9588 5.264 74.8281 5.754 74.6508 6.258C74.4734 6.75267 74.2588 7.25667 74.0068 7.77C74.1094 8.00333 74.2401 8.246 74.3988 8.498C74.5574 8.74067 74.7301 8.97867 74.9168 9.212C75.1034 9.436 75.2948 9.65067 75.4908 9.856C75.6868 10.052 75.8781 10.2247 76.0648 10.374C76.1488 10.4393 76.1908 10.5047 76.1908 10.57C76.2001 10.6353 76.1581 10.724 76.0648 10.836L75.3928 11.676C75.3181 11.7693 75.2481 11.8207 75.1828 11.83C75.1174 11.83 75.0334 11.788 74.9308 11.704C74.7814 11.5827 74.6181 11.4333 74.4408 11.256C74.2728 11.0787 74.1001 10.892 73.9228 10.696C73.7548 10.4907 73.5868 10.2807 73.4188 10.066C73.2601 9.842 73.1201 9.62733 72.9988 9.422C72.6254 9.94467 72.2148 10.4393 71.7668 10.906C71.3281 11.3727 70.8428 11.7973 70.3108 12.18C70.1894 12.264 70.1008 12.3013 70.0448 12.292C69.9981 12.2827 69.9328 12.2267 69.8488 12.124L69.1068 11.228C68.9761 11.0787 69.0088 10.9247 69.2048 10.766C69.7181 10.3647 70.1801 9.93067 70.5908 9.464C71.0108 8.988 71.3794 8.50267 71.6968 8.008C72.0141 7.51333 72.2801 7.01867 72.4948 6.524C72.7094 6.02933 72.8774 5.54867 72.9988 5.082C73.0174 5.00733 73.0221 4.93733 73.0128 4.872C73.0034 4.80667 72.9288 4.774 72.7888 4.774H70.1288C69.9981 4.774 69.9234 4.75067 69.9048 4.704C69.8861 4.648 69.8768 4.57333 69.8768 4.48V3.486C69.8768 3.38333 69.8908 3.30867 69.9188 3.262C69.9561 3.21533 70.0308 3.192 70.1428 3.192H74.0208C74.4408 3.192 74.7301 3.26667 74.8888 3.416C75.0474 3.556 75.1268 3.78933 75.1268 4.116C75.1268 4.20933 75.1174 4.32133 75.0988 4.452C75.0801 4.57333 75.0614 4.68533 75.0428 4.788ZM75.2528 8.344C75.1688 8.344 75.1034 8.32533 75.0568 8.288C75.0101 8.25067 74.9868 8.18067 74.9868 8.078V7.042C74.9868 6.91133 75.0101 6.832 75.0568 6.804C75.1128 6.776 75.1781 6.762 75.2528 6.762H76.6948V2.576C76.6948 2.38933 76.7928 2.296 76.9888 2.296H78.2628C78.4401 2.296 78.5288 2.38933 78.5288 2.576V14.784C78.5288 14.896 78.5101 14.966 78.4728 14.994C78.4354 15.0313 78.3654 15.05 78.2628 15.05H76.9888C76.8861 15.05 76.8114 15.036 76.7648 15.008C76.7181 14.98 76.6948 14.9053 76.6948 14.784V8.344H75.2528ZM81.0768 15.526H79.6908C79.5881 15.526 79.5181 15.5073 79.4808 15.47C79.4434 15.4327 79.4248 15.3627 79.4248 15.26V2.338C79.4248 2.23533 79.4434 2.16533 79.4808 2.128C79.5274 2.09067 79.6021 2.072 79.7048 2.072H81.0768C81.1794 2.072 81.2494 2.09067 81.2868 2.128C81.3241 2.16533 81.3428 2.23533 81.3428 2.338V15.26C81.3428 15.3627 81.3241 15.4327 81.2868 15.47C81.2494 15.5073 81.1794 15.526 81.0768 15.526ZM89.7068 10.906C89.7068 11.382 89.6181 11.8253 89.4408 12.236C89.2728 12.6467 89.0161 13.006 88.6708 13.314C88.3348 13.6127 87.9148 13.846 87.4108 14.014C86.9161 14.182 86.3421 14.266 85.6888 14.266C85.2968 14.266 84.8768 14.2287 84.4288 14.154C83.9808 14.0887 83.5888 13.9907 83.2528 13.86C83.1221 13.8133 83.0428 13.7573 83.0148 13.692C82.9868 13.6267 82.9821 13.5427 83.0008 13.44L83.1408 12.32C83.1595 12.1893 83.1921 12.11 83.2388 12.082C83.2948 12.054 83.3975 12.0633 83.5468 12.11C83.7708 12.1847 84.0275 12.2593 84.3168 12.334C84.6061 12.4087 84.8628 12.4553 85.0868 12.474C85.4041 12.502 85.7215 12.4973 86.0388 12.46C86.3561 12.4227 86.6408 12.3433 86.8928 12.222C87.1448 12.0913 87.3455 11.914 87.4948 11.69C87.6535 11.466 87.7328 11.186 87.7328 10.85C87.7328 10.654 87.6861 10.4627 87.5928 10.276C87.4995 10.08 87.3548 9.90733 87.1588 9.758C86.9721 9.60867 86.7341 9.48733 86.4448 9.394C86.1648 9.30067 85.8335 9.254 85.4508 9.254H84.6948C84.5735 9.254 84.4941 9.23533 84.4568 9.198C84.4288 9.16067 84.4148 9.086 84.4148 8.974V7.826C84.4148 7.69533 84.4288 7.616 84.4568 7.588C84.4941 7.55067 84.5735 7.532 84.6948 7.532H85.4228C85.6188 7.532 85.8335 7.504 86.0668 7.448C86.3095 7.392 86.5335 7.30333 86.7388 7.182C86.9535 7.06067 87.1308 6.91133 87.2708 6.734C87.4201 6.54733 87.4948 6.328 87.4948 6.076C87.4948 5.72133 87.3688 5.42267 87.1168 5.18C86.8741 4.93733 86.5008 4.816 85.9968 4.816C85.6701 4.816 85.3201 4.86267 84.9468 4.956C84.5735 5.04933 84.2375 5.16133 83.9388 5.292C83.8081 5.348 83.7055 5.37133 83.6308 5.362C83.5561 5.34333 83.5095 5.26867 83.4908 5.138L83.3508 3.976C83.3321 3.88267 83.3368 3.81267 83.3648 3.766C83.4021 3.71933 83.4908 3.668 83.6308 3.612C84.0228 3.45333 84.4288 3.32267 84.8488 3.22C85.2688 3.108 85.6795 3.052 86.0808 3.052C86.4915 3.052 86.9021 3.108 87.3128 3.22C87.7235 3.332 88.0921 3.50467 88.4188 3.738C88.7455 3.962 89.0068 4.256 89.2028 4.62C89.4081 4.97467 89.5108 5.39467 89.5108 5.88C89.5108 6.15067 89.4595 6.412 89.3568 6.664C89.2635 6.916 89.1281 7.154 88.9508 7.378C88.7828 7.59267 88.5775 7.78867 88.3348 7.966C88.1015 8.134 87.8448 8.274 87.5648 8.386C88.2741 8.65667 88.8061 9.02533 89.1608 9.492C89.5248 9.95867 89.7068 10.43 89.7068 10.906ZM99.653 12.908C99.009 13.0107 98.337 13.0947 97.637 13.16C96.9464 13.2253 96.2417 13.272 95.523 13.3C94.8137 13.328 94.1044 13.3467 93.395 13.356C92.6857 13.356 92.0044 13.3467 91.351 13.328C91.239 13.328 91.1644 13.3047 91.127 13.258C91.099 13.2113 91.085 13.1367 91.085 13.034V12.026C91.085 11.9233 91.1037 11.8487 91.141 11.802C91.1784 11.7553 91.2484 11.7367 91.351 11.746C91.883 11.7553 92.4244 11.7647 92.975 11.774C93.535 11.7833 94.095 11.7787 94.655 11.76V10.612C94.3284 10.5467 94.025 10.4487 93.745 10.318C93.4744 10.1873 93.2364 10.0287 93.031 9.842C92.835 9.646 92.6764 9.43133 92.555 9.198C92.443 8.95533 92.387 8.68933 92.387 8.4C92.387 8.05467 92.471 7.742 92.639 7.462C92.8164 7.17267 93.0544 6.92533 93.353 6.72C93.6517 6.51467 93.9924 6.36067 94.375 6.258C94.767 6.146 95.1824 6.09 95.621 6.09C96.0504 6.09 96.4564 6.146 96.839 6.258C97.231 6.36067 97.5717 6.51467 97.861 6.72C98.1504 6.92533 98.379 7.17267 98.547 7.462C98.7244 7.742 98.813 8.05467 98.813 8.4C98.813 8.68933 98.757 8.95533 98.645 9.198C98.533 9.44067 98.3744 9.65533 98.169 9.842C97.9637 10.0287 97.721 10.192 97.441 10.332C97.1704 10.4627 96.8764 10.5607 96.559 10.626V11.69C97.0537 11.662 97.5344 11.6247 98.001 11.578C98.477 11.5313 98.9484 11.4707 99.415 11.396C99.555 11.3773 99.6437 11.382 99.681 11.41C99.7277 11.4287 99.7604 11.494 99.779 11.606L99.891 12.614C99.9097 12.7447 99.8957 12.824 99.849 12.852C99.8117 12.8707 99.7464 12.8893 99.653 12.908ZM102.047 15.498H100.619C100.516 15.498 100.446 15.4793 100.409 15.442C100.372 15.414 100.353 15.344 100.353 15.232V2.338C100.353 2.23533 100.372 2.16533 100.409 2.128C100.446 2.09067 100.516 2.072 100.619 2.072H102.047C102.15 2.072 102.22 2.09067 102.257 2.128C102.294 2.16533 102.313 2.23533 102.313 2.338V15.232C102.313 15.344 102.294 15.414 102.257 15.442C102.22 15.4793 102.15 15.498 102.047 15.498ZM99.135 5.67H91.939C91.7337 5.67 91.631 5.572 91.631 5.376V4.494C91.631 4.298 91.7337 4.2 91.939 4.2H99.135C99.331 4.2 99.429 4.298 99.429 4.494V5.39C99.429 5.57667 99.331 5.67 99.135 5.67ZM97.455 3.682H93.773C93.6984 3.682 93.6284 3.668 93.563 3.64C93.507 3.60267 93.479 3.51867 93.479 3.388V2.492C93.479 2.37067 93.507 2.29133 93.563 2.254C93.6284 2.21667 93.6984 2.198 93.773 2.198H97.455C97.6604 2.198 97.763 2.30067 97.763 2.506V3.374C97.763 3.57933 97.6604 3.682 97.455 3.682ZM95.621 7.546C95.1917 7.546 94.8557 7.63 94.613 7.798C94.3704 7.966 94.249 8.16667 94.249 8.4C94.249 8.63333 94.3657 8.834 94.599 9.002C94.8417 9.17 95.1824 9.254 95.621 9.254C96.041 9.254 96.3677 9.17 96.601 9.002C96.8437 8.834 96.965 8.63333 96.965 8.4C96.965 8.16667 96.8437 7.966 96.601 7.798C96.3677 7.63 96.041 7.546 95.621 7.546ZM114.615 13.972C114.512 13.972 114.447 13.9627 114.419 13.944C114.391 13.9253 114.344 13.8647 114.279 13.762L111.465 9.464L110.709 10.304V13.706C110.709 13.818 110.686 13.8927 110.639 13.93C110.592 13.9673 110.522 13.986 110.429 13.986H109.085C108.982 13.986 108.908 13.9673 108.861 13.93C108.824 13.8927 108.805 13.818 108.805 13.706V3.486C108.805 3.29933 108.898 3.206 109.085 3.206H110.429C110.616 3.206 110.709 3.29933 110.709 3.486V7.63L113.999 3.416C114.046 3.36933 114.083 3.332 114.111 3.304C114.139 3.276 114.195 3.262 114.279 3.262H115.847C116.174 3.262 116.239 3.37867 116.043 3.612L112.585 7.98L116.407 13.678C116.547 13.874 116.486 13.972 116.225 13.972H114.615ZM124.242 12.74C123.99 12.9547 123.7 13.1413 123.374 13.3C123.047 13.4493 122.702 13.5753 122.338 13.678C121.983 13.7807 121.61 13.86 121.218 13.916C120.835 13.9627 120.457 13.986 120.084 13.986H118.32C118.217 13.986 118.138 13.9813 118.082 13.972C118.026 13.9627 117.984 13.944 117.956 13.916C117.928 13.888 117.909 13.846 117.9 13.79C117.9 13.734 117.9 13.6547 117.9 13.552V3.682C117.9 3.57 117.9 3.48133 117.9 3.416C117.909 3.35067 117.928 3.304 117.956 3.276C117.984 3.248 118.026 3.22933 118.082 3.22C118.147 3.21067 118.236 3.206 118.348 3.206H120.77C122.562 3.206 123.92 3.73333 124.844 4.788C125.236 5.24533 125.525 5.77733 125.712 6.384C125.908 6.99067 126.006 7.71867 126.006 8.568C126.006 9.44533 125.852 10.248 125.544 10.976C125.245 11.6947 124.811 12.2827 124.242 12.74ZM123.388 5.992C123.117 5.64667 122.758 5.38067 122.31 5.194C121.871 5.00733 121.344 4.914 120.728 4.914H119.804V12.264H120.266C120.816 12.264 121.325 12.1847 121.792 12.026C122.258 11.8673 122.66 11.6293 122.996 11.312C123.332 10.9947 123.593 10.6073 123.78 10.15C123.976 9.68333 124.074 9.142 124.074 8.526C124.074 7.434 123.845 6.58933 123.388 5.992ZM131.712 4.97V13.706C131.712 13.818 131.688 13.8927 131.642 13.93C131.604 13.9673 131.539 13.986 131.446 13.986H130.074C129.98 13.986 129.91 13.9673 129.864 13.93C129.826 13.8927 129.808 13.818 129.808 13.706V4.97H127.33C127.227 4.97 127.152 4.95133 127.106 4.914C127.068 4.87667 127.05 4.80667 127.05 4.704V3.486C127.05 3.29933 127.143 3.206 127.33 3.206H134.218C134.339 3.206 134.414 3.22933 134.442 3.276C134.479 3.31333 134.498 3.38333 134.498 3.486V4.704C134.498 4.80667 134.479 4.87667 134.442 4.914C134.414 4.95133 134.339 4.97 134.218 4.97H131.712ZM150.432 15.498H149.018C148.916 15.498 148.846 15.4793 148.808 15.442C148.78 15.414 148.766 15.3487 148.766 15.246V8.82H147.73V14.728C147.73 14.8493 147.712 14.9193 147.674 14.938C147.646 14.966 147.581 14.98 147.478 14.98H146.162C146.06 14.98 145.99 14.966 145.952 14.938C145.915 14.9193 145.896 14.8493 145.896 14.728V2.576C145.896 2.47333 145.915 2.408 145.952 2.38C145.99 2.34267 146.06 2.324 146.162 2.324H147.478C147.581 2.324 147.646 2.34267 147.674 2.38C147.712 2.408 147.73 2.47333 147.73 2.576V7.238H148.766V2.324C148.766 2.22133 148.785 2.156 148.822 2.128C148.86 2.09067 148.93 2.072 149.032 2.072H150.432C150.535 2.072 150.6 2.09067 150.628 2.128C150.666 2.156 150.684 2.22133 150.684 2.324V15.246C150.684 15.3487 150.666 15.414 150.628 15.442C150.6 15.4793 150.535 15.498 150.432 15.498ZM143.922 4.312H140.52C140.436 4.312 140.362 4.298 140.296 4.27C140.24 4.23267 140.212 4.14867 140.212 4.018V3.052C140.212 2.93067 140.24 2.85133 140.296 2.814C140.362 2.77667 140.436 2.758 140.52 2.758H143.922C144.118 2.758 144.216 2.86067 144.216 3.066V4.004C144.216 4.20933 144.118 4.312 143.922 4.312ZM144.986 6.538H139.176C138.971 6.538 138.868 6.43533 138.868 6.23V5.278C138.868 5.082 138.971 4.984 139.176 4.984H144.986C145.182 4.984 145.28 5.082 145.28 5.278V6.244C145.28 6.44 145.182 6.538 144.986 6.538ZM142.172 12.656C141.743 12.656 141.346 12.5813 140.982 12.432C140.628 12.2827 140.32 12.082 140.058 11.83C139.806 11.5687 139.606 11.2653 139.456 10.92C139.316 10.5653 139.246 10.1873 139.246 9.786C139.246 9.38467 139.316 9.016 139.456 8.68C139.606 8.33467 139.811 8.036 140.072 7.784C140.334 7.532 140.642 7.336 140.996 7.196C141.36 7.04667 141.757 6.972 142.186 6.972C142.616 6.972 143.008 7.04667 143.362 7.196C143.726 7.336 144.039 7.532 144.3 7.784C144.562 8.036 144.762 8.33467 144.902 8.68C145.052 9.016 145.126 9.38467 145.126 9.786C145.126 10.178 145.052 10.5513 144.902 10.906C144.762 11.2513 144.562 11.5547 144.3 11.816C144.039 12.068 143.726 12.2733 143.362 12.432C142.998 12.5813 142.602 12.656 142.172 12.656ZM142.186 8.554C141.832 8.554 141.547 8.68 141.332 8.932C141.127 9.17467 141.024 9.46867 141.024 9.814C141.024 10.1593 141.127 10.458 141.332 10.71C141.547 10.962 141.832 11.088 142.186 11.088C142.56 11.088 142.844 10.962 143.04 10.71C143.246 10.458 143.348 10.1593 143.348 9.814C143.348 9.46867 143.246 9.17467 143.04 8.932C142.844 8.68 142.56 8.554 142.186 8.554ZM153.392 12.81C153.262 12.8847 153.159 12.922 153.084 12.922C153.019 12.9127 152.949 12.8567 152.874 12.754L152.216 11.774C152.151 11.69 152.128 11.606 152.146 11.522C152.174 11.4287 152.23 11.3587 152.314 11.312C153.136 10.8547 153.854 10.3367 154.47 9.758C155.086 9.17 155.6 8.54 156.01 7.868C155.478 7.91467 154.928 7.94733 154.358 7.966C153.798 7.98467 153.271 7.994 152.776 7.994C152.59 7.994 152.496 7.896 152.496 7.7V6.664C152.496 6.53333 152.515 6.454 152.552 6.426C152.59 6.38867 152.66 6.37 152.762 6.37C153.08 6.37 153.416 6.37 153.77 6.37C154.134 6.36067 154.494 6.35133 154.848 6.342C155.203 6.33267 155.544 6.31867 155.87 6.3C156.197 6.28133 156.496 6.26267 156.766 6.244C156.888 5.84267 156.986 5.42733 157.06 4.998C157.088 4.802 157.014 4.704 156.836 4.704H153.14C153.01 4.704 152.93 4.68533 152.902 4.648C152.874 4.60133 152.86 4.52667 152.86 4.424V3.374C152.86 3.262 152.879 3.192 152.916 3.164C152.963 3.12667 153.038 3.108 153.14 3.108H158.026C158.493 3.108 158.801 3.206 158.95 3.402C159.109 3.58867 159.174 3.88733 159.146 4.298C159.09 5.138 158.922 5.964 158.642 6.776C158.362 7.588 157.975 8.36267 157.48 9.1C156.995 9.828 156.407 10.5093 155.716 11.144C155.035 11.7787 154.26 12.334 153.392 12.81ZM163.08 15.498H161.652C161.55 15.498 161.48 15.4793 161.442 15.442C161.405 15.414 161.386 15.344 161.386 15.232V8.442H159.188C159.104 8.442 159.039 8.428 158.992 8.4C158.946 8.36267 158.922 8.29267 158.922 8.19V7.126C158.922 7.014 158.946 6.93933 158.992 6.902C159.039 6.86467 159.104 6.846 159.188 6.846H161.386V2.338C161.386 2.23533 161.405 2.16533 161.442 2.128C161.48 2.09067 161.55 2.072 161.652 2.072H163.08C163.183 2.072 163.248 2.09067 163.276 2.128C163.314 2.16533 163.332 2.23533 163.332 2.338V15.232C163.332 15.344 163.314 15.414 163.276 15.442C163.248 15.4793 163.183 15.498 163.08 15.498ZM175.56 8.232H172.354V9.226H177.38C177.464 9.226 177.534 9.24467 177.59 9.282C177.646 9.31933 177.674 9.394 177.674 9.506V10.444C177.674 10.6493 177.576 10.752 177.38 10.752H165.368C165.238 10.752 165.158 10.7287 165.13 10.682C165.102 10.6353 165.088 10.556 165.088 10.444V9.506C165.088 9.40333 165.107 9.33333 165.144 9.296C165.182 9.24933 165.256 9.226 165.368 9.226H170.408V8.232H168.154C167.744 8.232 167.45 8.13867 167.272 7.952C167.104 7.76533 167.02 7.49 167.02 7.126V3.332C167.02 2.93067 167.1 2.66933 167.258 2.548C167.426 2.41733 167.706 2.352 168.098 2.352H175.49C175.668 2.352 175.756 2.44067 175.756 2.618V3.556C175.756 3.65867 175.738 3.72867 175.7 3.766C175.663 3.80333 175.593 3.822 175.49 3.822H169.204C169.055 3.822 168.98 3.89667 168.98 4.046V4.564H175.266C175.462 4.564 175.56 4.662 175.56 4.858V5.712C175.56 5.908 175.462 6.006 175.266 6.006H168.98V6.552C168.98 6.70133 169.055 6.776 169.204 6.776H175.56C175.766 6.776 175.868 6.85533 175.868 7.014V7.952C175.868 8.13867 175.766 8.232 175.56 8.232ZM175.868 15.414H168C167.804 15.414 167.641 15.3953 167.51 15.358C167.389 15.33 167.291 15.2787 167.216 15.204C167.151 15.1293 167.104 15.0267 167.076 14.896C167.048 14.7653 167.034 14.602 167.034 14.406V11.76C167.034 11.5733 167.128 11.48 167.314 11.48H168.686C168.882 11.48 168.98 11.5733 168.98 11.76V13.608C168.98 13.748 169.05 13.818 169.19 13.818H175.868C175.943 13.818 176.008 13.8367 176.064 13.874C176.13 13.902 176.162 13.9673 176.162 14.07V15.162C176.162 15.2927 176.13 15.3673 176.064 15.386C176.008 15.4047 175.943 15.414 175.868 15.414ZM188.814 15.61C188.207 15.61 187.647 15.54 187.134 15.4C186.621 15.26 186.173 15.064 185.79 14.812C185.417 14.5693 185.123 14.28 184.908 13.944C184.693 13.608 184.586 13.2393 184.586 12.838C184.586 12.4553 184.693 12.1007 184.908 11.774C185.123 11.438 185.417 11.1487 185.79 10.906C186.173 10.654 186.621 10.458 187.134 10.318C187.647 10.178 188.207 10.108 188.814 10.108C189.393 10.108 189.939 10.178 190.452 10.318C190.975 10.4487 191.432 10.64 191.824 10.892C192.216 11.1347 192.524 11.424 192.748 11.76C192.981 12.0867 193.098 12.446 193.098 12.838C193.098 13.2393 192.981 13.608 192.748 13.944C192.524 14.28 192.216 14.5693 191.824 14.812C191.432 15.064 190.975 15.26 190.452 15.4C189.939 15.54 189.393 15.61 188.814 15.61ZM183.536 9.926C183.377 10.0007 183.265 10.024 183.2 9.996C183.144 9.968 183.093 9.912 183.046 9.828L182.514 8.862C182.421 8.694 182.481 8.56333 182.696 8.47C183.172 8.246 183.629 7.98467 184.068 7.686C184.507 7.38733 184.903 7.07933 185.258 6.762C185.622 6.44467 185.935 6.12267 186.196 5.796C186.467 5.46933 186.672 5.166 186.812 4.886C186.887 4.72733 186.919 4.61533 186.91 4.55C186.901 4.48467 186.817 4.452 186.658 4.452H183.466C183.345 4.452 183.27 4.42867 183.242 4.382C183.223 4.326 183.214 4.25133 183.214 4.158V3.136C183.214 2.94 183.303 2.842 183.48 2.842H188.212C188.763 2.842 189.099 2.982 189.22 3.262C189.351 3.53267 189.332 3.90133 189.164 4.368C188.921 5.04 188.562 5.698 188.086 6.342C188.459 6.65933 188.851 6.944 189.262 7.196C189.673 7.43867 190.041 7.63933 190.368 7.798C190.527 7.882 190.559 7.99867 190.466 8.148L189.794 9.212C189.71 9.352 189.584 9.37533 189.416 9.282C189.276 9.21667 189.108 9.128 188.912 9.016C188.725 8.89467 188.525 8.764 188.31 8.624C188.095 8.47467 187.871 8.316 187.638 8.148C187.405 7.97067 187.185 7.78867 186.98 7.602C186.504 8.06867 185.977 8.50267 185.398 8.904C184.819 9.296 184.199 9.63667 183.536 9.926ZM194.694 6.888H192.958V9.478C192.958 9.646 192.874 9.73 192.706 9.73H191.292C191.105 9.73 191.012 9.64133 191.012 9.464V2.338C191.012 2.23533 191.031 2.16533 191.068 2.128C191.115 2.09067 191.189 2.072 191.292 2.072H192.706C192.809 2.072 192.874 2.09067 192.902 2.128C192.939 2.16533 192.958 2.23533 192.958 2.338V5.292H194.694C194.778 5.292 194.843 5.306 194.89 5.334C194.946 5.35267 194.974 5.42267 194.974 5.544V6.608C194.974 6.79467 194.881 6.888 194.694 6.888ZM188.814 11.634C188.114 11.634 187.563 11.76 187.162 12.012C186.77 12.264 186.574 12.5533 186.574 12.88C186.574 13.1973 186.77 13.4773 187.162 13.72C187.563 13.9533 188.114 14.07 188.814 14.07C189.141 14.07 189.444 14.0373 189.724 13.972C190.004 13.9067 190.242 13.8227 190.438 13.72C190.643 13.608 190.802 13.482 190.914 13.342C191.035 13.1927 191.096 13.0387 191.096 12.88C191.096 12.7213 191.035 12.5673 190.914 12.418C190.802 12.2687 190.643 12.138 190.438 12.026C190.233 11.9047 189.99 11.8113 189.71 11.746C189.43 11.6713 189.131 11.634 188.814 11.634ZM203.016 11.872C202.167 12.04 201.252 12.1707 200.272 12.264C199.292 12.348 198.307 12.3667 197.318 12.32C196.907 12.3107 196.627 12.2313 196.478 12.082C196.338 11.9327 196.268 11.6807 196.268 11.326V7.588C196.268 7.28933 196.333 7.07933 196.464 6.958C196.595 6.83667 196.809 6.776 197.108 6.776H199.754C199.838 6.776 199.889 6.76667 199.908 6.748C199.936 6.72 199.95 6.664 199.95 6.58V4.858C199.95 4.774 199.936 4.72267 199.908 4.704C199.889 4.676 199.838 4.662 199.754 4.662H196.632C196.445 4.662 196.352 4.57333 196.352 4.396V3.332C196.352 3.22933 196.371 3.15933 196.408 3.122C196.455 3.08467 196.529 3.066 196.632 3.066H200.93C201.135 3.066 201.299 3.08467 201.42 3.122C201.551 3.15 201.649 3.20133 201.714 3.276C201.779 3.35067 201.821 3.44867 201.84 3.57C201.868 3.69133 201.882 3.84533 201.882 4.032V7.28C201.882 7.672 201.803 7.938 201.644 8.078C201.495 8.20867 201.252 8.274 200.916 8.274H198.368C198.247 8.274 198.186 8.33467 198.186 8.456V10.556C198.186 10.6773 198.256 10.738 198.396 10.738C198.807 10.7473 199.194 10.7473 199.558 10.738C199.931 10.7193 200.295 10.696 200.65 10.668C201.014 10.6307 201.369 10.5887 201.714 10.542C202.069 10.4953 202.433 10.4393 202.806 10.374C202.899 10.3553 202.96 10.3647 202.988 10.402C203.016 10.43 203.039 10.4813 203.058 10.556L203.24 11.592C203.259 11.6947 203.249 11.7647 203.212 11.802C203.184 11.83 203.119 11.8533 203.016 11.872ZM206.642 15.498H205.214C205.111 15.498 205.041 15.4793 205.004 15.442C204.967 15.414 204.948 15.344 204.948 15.232V9.828H202.932C202.848 9.828 202.783 9.814 202.736 9.786C202.689 9.74867 202.666 9.67867 202.666 9.576V8.526C202.666 8.414 202.689 8.344 202.736 8.316C202.783 8.27867 202.848 8.26 202.932 8.26H204.948V6.692H202.932C202.848 6.692 202.783 6.67333 202.736 6.636C202.689 6.59867 202.666 6.52867 202.666 6.426V5.39C202.666 5.278 202.689 5.208 202.736 5.18C202.783 5.14267 202.848 5.124 202.932 5.124H204.948V2.338C204.948 2.23533 204.967 2.16533 205.004 2.128C205.041 2.09067 205.111 2.072 205.214 2.072H206.642C206.745 2.072 206.81 2.09067 206.838 2.128C206.875 2.16533 206.894 2.23533 206.894 2.338V15.232C206.894 15.344 206.875 15.414 206.838 15.442C206.81 15.4793 206.745 15.498 206.642 15.498ZM215.146 15.61C214.539 15.61 213.979 15.54 213.466 15.4C212.953 15.26 212.505 15.064 212.122 14.812C211.749 14.5693 211.455 14.28 211.24 13.944C211.025 13.608 210.918 13.2393 210.918 12.838C210.918 12.4553 211.025 12.1007 211.24 11.774C211.455 11.438 211.749 11.1487 212.122 10.906C212.505 10.654 212.953 10.458 213.466 10.318C213.979 10.178 214.539 10.108 215.146 10.108C215.725 10.108 216.271 10.178 216.784 10.318C217.307 10.4487 217.764 10.64 218.156 10.892C218.548 11.1347 218.856 11.424 219.08 11.76C219.313 12.0867 219.43 12.446 219.43 12.838C219.43 13.2393 219.313 13.608 219.08 13.944C218.856 14.28 218.548 14.5693 218.156 14.812C217.764 15.064 217.307 15.26 216.784 15.4C216.271 15.54 215.725 15.61 215.146 15.61ZM210.022 9.772C209.845 9.87467 209.723 9.926 209.658 9.926C209.602 9.926 209.537 9.87933 209.462 9.786L208.762 8.918C208.659 8.78733 208.622 8.694 208.65 8.638C208.678 8.57267 208.748 8.498 208.86 8.414C209.364 8.078 209.798 7.69533 210.162 7.266C210.526 6.82733 210.825 6.36533 211.058 5.88C211.301 5.38533 211.478 4.872 211.59 4.34C211.711 3.79867 211.772 3.25267 211.772 2.702C211.772 2.54333 211.791 2.45 211.828 2.422C211.875 2.38467 211.963 2.37067 212.094 2.38L213.41 2.436C213.513 2.44533 213.583 2.46867 213.62 2.506C213.667 2.534 213.69 2.59933 213.69 2.702C213.69 3.43 213.62 4.116 213.48 4.76C213.601 5.07733 213.769 5.38533 213.984 5.684C214.208 5.98267 214.446 6.26267 214.698 6.524C214.95 6.776 215.207 7.00933 215.468 7.224C215.739 7.42933 215.986 7.59733 216.21 7.728C216.341 7.80267 216.406 7.87733 216.406 7.952C216.406 7.98933 216.387 8.036 216.35 8.092C216.322 8.13867 216.294 8.18067 216.266 8.218L215.72 9.086C215.645 9.198 215.58 9.25867 215.524 9.268C215.468 9.268 215.375 9.23067 215.244 9.156C215.057 9.06267 214.852 8.94133 214.628 8.792C214.404 8.63333 214.18 8.456 213.956 8.26C213.732 8.064 213.513 7.84933 213.298 7.616C213.093 7.37333 212.906 7.12133 212.738 6.86C212.113 8.04533 211.207 9.016 210.022 9.772ZM221.026 6.902H219.29V9.478C219.29 9.646 219.206 9.73 219.038 9.73H217.624C217.437 9.73 217.344 9.64133 217.344 9.464V2.338C217.344 2.23533 217.363 2.16533 217.4 2.128C217.447 2.09067 217.521 2.072 217.624 2.072H219.038C219.141 2.072 219.206 2.09067 219.234 2.128C219.271 2.16533 219.29 2.23533 219.29 2.338V5.306H221.026C221.11 5.306 221.175 5.32 221.222 5.348C221.278 5.36667 221.306 5.43667 221.306 5.558V6.622C221.306 6.80867 221.213 6.902 221.026 6.902ZM215.146 11.634C214.446 11.634 213.895 11.76 213.494 12.012C213.102 12.264 212.906 12.5533 212.906 12.88C212.906 13.1973 213.102 13.4773 213.494 13.72C213.895 13.9533 214.446 14.07 215.146 14.07C215.473 14.07 215.776 14.0373 216.056 13.972C216.336 13.9067 216.574 13.8227 216.77 13.72C216.975 13.608 217.134 13.482 217.246 13.342C217.367 13.1927 217.428 13.0387 217.428 12.88C217.428 12.7213 217.367 12.5673 217.246 12.418C217.134 12.2687 216.975 12.138 216.77 12.026C216.565 11.9047 216.322 11.8113 216.042 11.746C215.762 11.6713 215.463 11.634 215.146 11.634ZM237.906 10.64H232.866V15.12C232.866 15.3067 232.773 15.4 232.586 15.4H231.2C231.013 15.4 230.92 15.3067 230.92 15.12V10.64H225.88C225.759 10.64 225.679 10.612 225.642 10.556C225.614 10.5 225.6 10.4207 225.6 10.318V9.352C225.6 9.24933 225.614 9.17467 225.642 9.128C225.679 9.072 225.759 9.044 225.88 9.044H237.906C238.102 9.044 238.2 9.14667 238.2 9.352V10.318C238.2 10.5327 238.102 10.64 237.906 10.64ZM227.448 8.19C227.317 8.22733 227.229 8.232 227.182 8.204C227.154 8.18533 227.126 8.15733 227.098 8.12C227.079 8.07333 227.061 8.036 227.042 8.008L226.524 6.986C226.449 6.82733 226.51 6.71533 226.706 6.65C228.059 6.202 229.077 5.60933 229.758 4.872C230.449 4.13467 230.85 3.28067 230.962 2.31C230.981 2.17933 231.004 2.1 231.032 2.072C231.069 2.044 231.153 2.03467 231.284 2.044L232.558 2.1C232.773 2.10933 232.875 2.20733 232.866 2.394C232.857 2.51533 232.847 2.632 232.838 2.744C232.829 2.856 232.815 2.968 232.796 3.08C232.955 3.43467 233.179 3.78 233.468 4.116C233.767 4.44267 234.107 4.75067 234.49 5.04C234.873 5.32 235.288 5.572 235.736 5.796C236.193 6.01067 236.66 6.188 237.136 6.328C237.267 6.36533 237.332 6.41667 237.332 6.482C237.341 6.54733 237.323 6.636 237.276 6.748L236.814 7.728C236.795 7.74667 236.777 7.77467 236.758 7.812C236.749 7.84933 236.735 7.87733 236.716 7.896C236.697 7.90533 236.669 7.91467 236.632 7.924C236.604 7.924 236.557 7.91467 236.492 7.896C236.1 7.82133 235.689 7.69533 235.26 7.518C234.84 7.34067 234.429 7.126 234.028 6.874C233.627 6.622 233.249 6.342 232.894 6.034C232.549 5.726 232.25 5.404 231.998 5.068C231.513 5.81467 230.873 6.44933 230.08 6.972C229.287 7.49467 228.409 7.90067 227.448 8.19ZM245.402 15.61C244.795 15.61 244.235 15.54 243.722 15.4C243.209 15.26 242.761 15.064 242.378 14.812C242.005 14.5693 241.711 14.28 241.496 13.944C241.281 13.608 241.174 13.2393 241.174 12.838C241.174 12.4553 241.281 12.1007 241.496 11.774C241.711 11.438 242.005 11.1487 242.378 10.906C242.761 10.654 243.209 10.458 243.722 10.318C244.235 10.178 244.795 10.108 245.402 10.108C245.981 10.108 246.527 10.178 247.04 10.318C247.563 10.4487 248.02 10.64 248.412 10.892C248.804 11.1347 249.112 11.424 249.336 11.76C249.569 12.0867 249.686 12.446 249.686 12.838C249.686 13.2393 249.569 13.608 249.336 13.944C249.112 14.28 248.804 14.5693 248.412 14.812C248.02 15.064 247.563 15.26 247.04 15.4C246.527 15.54 245.981 15.61 245.402 15.61ZM240.278 9.772C240.101 9.87467 239.979 9.926 239.914 9.926C239.858 9.926 239.793 9.87933 239.718 9.786L239.018 8.918C238.915 8.78733 238.878 8.694 238.906 8.638C238.934 8.57267 239.004 8.498 239.116 8.414C239.62 8.078 240.054 7.69533 240.418 7.266C240.782 6.82733 241.081 6.36533 241.314 5.88C241.557 5.38533 241.734 4.872 241.846 4.34C241.967 3.79867 242.028 3.25267 242.028 2.702C242.028 2.54333 242.047 2.45 242.084 2.422C242.131 2.38467 242.219 2.37067 242.35 2.38L243.666 2.436C243.769 2.44533 243.839 2.46867 243.876 2.506C243.923 2.534 243.946 2.59933 243.946 2.702C243.946 3.43 243.876 4.116 243.736 4.76C243.857 5.07733 244.025 5.38533 244.24 5.684C244.464 5.98267 244.702 6.26267 244.954 6.524C245.206 6.776 245.463 7.00933 245.724 7.224C245.995 7.42933 246.242 7.59733 246.466 7.728C246.597 7.80267 246.662 7.87733 246.662 7.952C246.662 7.98933 246.643 8.036 246.606 8.092C246.578 8.13867 246.55 8.18067 246.522 8.218L245.976 9.086C245.901 9.198 245.836 9.25867 245.78 9.268C245.724 9.268 245.631 9.23067 245.5 9.156C245.313 9.06267 245.108 8.94133 244.884 8.792C244.66 8.63333 244.436 8.456 244.212 8.26C243.988 8.064 243.769 7.84933 243.554 7.616C243.349 7.37333 243.162 7.12133 242.994 6.86C242.369 8.04533 241.463 9.016 240.278 9.772ZM251.282 6.902H249.546V9.478C249.546 9.646 249.462 9.73 249.294 9.73H247.88C247.693 9.73 247.6 9.64133 247.6 9.464V2.338C247.6 2.23533 247.619 2.16533 247.656 2.128C247.703 2.09067 247.777 2.072 247.88 2.072H249.294C249.397 2.072 249.462 2.09067 249.49 2.128C249.527 2.16533 249.546 2.23533 249.546 2.338V5.306H251.282C251.366 5.306 251.431 5.32 251.478 5.348C251.534 5.36667 251.562 5.43667 251.562 5.558V6.622C251.562 6.80867 251.469 6.902 251.282 6.902ZM245.402 11.634C244.702 11.634 244.151 11.76 243.75 12.012C243.358 12.264 243.162 12.5533 243.162 12.88C243.162 13.1973 243.358 13.4773 243.75 13.72C244.151 13.9533 244.702 14.07 245.402 14.07C245.729 14.07 246.032 14.0373 246.312 13.972C246.592 13.9067 246.83 13.8227 247.026 13.72C247.231 13.608 247.39 13.482 247.502 13.342C247.623 13.1927 247.684 13.0387 247.684 12.88C247.684 12.7213 247.623 12.5673 247.502 12.418C247.39 12.2687 247.231 12.138 247.026 12.026C246.821 11.9047 246.578 11.8113 246.298 11.746C246.018 11.6713 245.719 11.634 245.402 11.634Z" fill="url(#paint0_linear_232_42)"/>
<g filter="url(#filter0_f_232_42)">
<path d="M8.41 14.056H10.454V10.976L13.114 12.516L14.122 10.752L11.462 9.212L14.122 7.672L13.114 5.908L10.454 7.448V4.368H8.41V7.448L5.722 5.908L4.714 7.672L7.374 9.212L4.714 10.752L5.722 12.516L8.41 10.976V14.056Z" fill="url(#paint1_linear_232_42)" fill-opacity="0.5"/>
</g>
<path d="M8.41 14.056H10.454V10.976L13.114 12.516L14.122 10.752L11.462 9.212L14.122 7.672L13.114 5.908L10.454 7.448V4.368H8.41V7.448L5.722 5.908L4.714 7.672L7.374 9.212L4.714 10.752L5.722 12.516L8.41 10.976V14.056Z" fill="url(#paint2_linear_232_42)"/>
<defs>
<filter id="filter0_f_232_42" x="0.713989" y="0.367981" width="17.408" height="17.688" filterUnits="userSpaceOnUse" color-interpolation-filters="sRGB">
<feFlood flood-opacity="0" result="BackgroundImageFix"/>
<feBlend mode="normal" in="SourceGraphic" in2="BackgroundImageFix" result="shape"/>
<feGaussianBlur stdDeviation="2" result="effect1_foregroundBlur_232_42"/>
</filter>
<linearGradient id="paint0_linear_232_42" x1="137.5" y1="2" x2="137.5" y2="16" gradientUnits="userSpaceOnUse">
<stop stop-color="#31B1C9"/>
<stop offset="1" stop-color="#CADFA8"/>
</linearGradient>
<linearGradient id="paint1_linear_232_42" x1="7.036" y1="19" x2="21.3382" y2="18.9886" gradientUnits="userSpaceOnUse">
<stop stop-color="#FAD14C"/>
<stop offset="1" stop-color="#D18A8C"/>
</linearGradient>
<linearGradient id="paint2_linear_232_42" x1="7.036" y1="19" x2="21.3382" y2="18.9886" gradientUnits="userSpaceOnUse">
<stop stop-color="#FAD14C"/>
<stop offset="1" stop-color="#D18A8C"/>
</linearGradient>
</defs>
</svg>
