<svg width="598" height="344" viewBox="0 0 598 344" fill="none" xmlns="http://www.w3.org/2000/svg">
<path d="M31.334 256.594H30.2793C30.0059 254.924 29.6104 253.664 29.0928 252.814C28.458 251.77 27.7451 251.247 26.9541 251.247C25.9971 251.247 25.1865 251.911 24.5225 253.239C23.5557 255.163 23.0723 257.99 23.0723 261.721C23.0723 264.846 23.4873 267.316 24.3174 269.133C25.0693 270.793 26.0215 271.623 27.1738 271.623C28.2285 271.623 29.083 270.959 29.7373 269.631C30.1865 268.713 30.5869 267.365 30.9385 265.588L31.9932 266.101C31.6514 268.522 31.1484 270.29 30.4844 271.403C29.625 272.849 28.4238 273.571 26.8809 273.571C25.1816 273.571 23.7803 272.517 22.6768 270.407C21.5244 268.2 20.9482 265.295 20.9482 261.691C20.9482 258.283 21.4316 255.485 22.3984 253.298C23.4922 250.847 24.9619 249.621 26.8076 249.621C27.8623 249.621 28.7754 250.163 29.5469 251.247C29.7129 251.491 29.8643 251.613 30.001 251.613C30.1768 251.613 30.2988 251.14 30.3672 250.192H31.334V256.594ZM35.3184 250.207H40.0498V251.291C39.5127 251.359 39.1465 251.486 38.9512 251.672C38.7656 251.857 38.6729 252.219 38.6729 252.756V260.153H44.3271V252.756C44.3271 252.219 44.2393 251.857 44.0635 251.672C43.8682 251.486 43.4971 251.359 42.9502 251.291V250.207H47.6816V251.291C47.125 251.35 46.7441 251.477 46.5391 251.672C46.3633 251.848 46.2754 252.209 46.2754 252.756V270.451C46.2754 270.969 46.3633 271.315 46.5391 271.491C46.7344 271.687 47.1152 271.828 47.6816 271.916V273H42.9209V271.916C43.5068 271.828 43.8926 271.677 44.0781 271.462C44.2441 271.286 44.3271 270.949 44.3271 270.451V261.647H38.6729V270.451C38.6729 270.969 38.7656 271.315 38.9512 271.491C39.1367 271.687 39.5127 271.828 40.0791 271.916V273H35.3184V271.916C35.9043 271.828 36.29 271.677 36.4756 271.462C36.6416 271.286 36.7246 270.949 36.7246 270.451V252.756C36.7246 252.219 36.6367 251.857 36.4609 251.672C36.2656 251.477 35.8848 251.35 35.3184 251.291V250.207ZM56.5293 249.621C58.1602 249.621 59.5176 250.666 60.6016 252.756C61.793 255.051 62.3887 258.024 62.3887 261.677C62.3887 265.212 61.8564 268.078 60.792 270.275C59.7178 272.473 58.2871 273.571 56.5 273.571C54.7129 273.571 53.2871 272.468 52.2227 270.261C51.1582 268.073 50.626 265.202 50.626 261.647C50.626 257.702 51.3096 254.577 52.6768 252.272C53.7217 250.505 55.0059 249.621 56.5293 249.621ZM56.4854 251.247C55.5088 251.247 54.7031 252.048 54.0684 253.649C53.3164 255.534 52.9404 258.195 52.9404 261.633C52.9404 265.002 53.3164 267.634 54.0684 269.528C54.7129 271.14 55.5234 271.945 56.5 271.945C57.3984 271.945 58.1504 271.276 58.7559 269.938C59.6348 268.044 60.0742 265.266 60.0742 261.604C60.0742 257.707 59.6006 254.836 58.6533 252.99C58.0576 251.828 57.335 251.247 56.4854 251.247ZM65.0547 250.207H70.123V251.35C69.2246 251.438 68.7754 251.721 68.7754 252.199C68.7754 252.453 68.8242 252.727 68.9219 253.02L71.8662 261.633L74.7959 253.269C74.9229 252.927 74.9863 252.634 74.9863 252.39C74.9863 251.833 74.5273 251.486 73.6094 251.35V250.207H77.96V251.35C77.4717 251.486 77.1396 251.672 76.9639 251.906C76.6807 252.277 76.4121 252.81 76.1582 253.503L72.4375 263.64V270.451C72.4375 270.9 72.5596 271.232 72.8037 271.447C73.0088 271.623 73.4434 271.779 74.1074 271.916V273H68.834V271.916C69.5176 271.838 69.9668 271.691 70.1816 271.477C70.3867 271.281 70.4893 270.939 70.4893 270.451V263.552L66.7686 252.99C66.4268 252.033 65.8555 251.486 65.0547 251.35V250.207Z" fill="white"/>
<path d="M20.0547 295.207H25.4453C27.6914 295.207 29.459 296.301 30.748 298.488C31.8906 300.432 32.4619 303.122 32.4619 306.56C32.4619 310.427 31.7295 313.405 30.2646 315.495C29.0928 317.165 27.4863 318 25.4453 318H20.0547V316.916C20.5723 316.838 20.9434 316.691 21.168 316.477C21.3633 316.271 21.4609 315.92 21.4609 315.422V297.727C21.4609 297.209 21.3486 296.848 21.124 296.643C20.9385 296.467 20.582 296.35 20.0547 296.291V295.207ZM23.4092 297.873V315.144C23.4092 315.671 23.4971 316.032 23.6729 316.228C23.8389 316.413 24.1904 316.506 24.7275 316.506H25.5332C27.0469 316.506 28.2188 315.646 29.0488 313.928C29.8887 312.189 30.3086 309.655 30.3086 306.325C30.3086 303.522 30.084 301.462 29.6348 300.144C28.8535 297.849 27.457 296.701 25.4453 296.701H24.5518C24.1123 296.701 23.8096 296.784 23.6436 296.95C23.4873 297.106 23.4092 297.414 23.4092 297.873ZM35.4941 295.207H46.2607L46.4658 301.022H45.543C45.377 299.519 45.0547 298.405 44.5762 297.683C44.1465 297.028 43.458 296.701 42.5107 296.701H40.2549C39.7568 296.701 39.415 296.794 39.2295 296.979C39.0732 297.146 38.9951 297.482 38.9951 297.99V305.168H40.9434C41.7246 305.168 42.2617 304.836 42.5547 304.172C42.7695 303.703 42.8916 303.054 42.9209 302.224H43.8877V310.017H42.9209C42.8721 308.796 42.6914 307.922 42.3789 307.395C42.0762 306.906 41.5977 306.662 40.9434 306.662H38.9951V315.217C38.9951 315.715 39.0977 316.052 39.3027 316.228C39.5078 316.413 39.8936 316.506 40.46 316.506H42.3496C43.6094 316.506 44.4932 316.091 45.001 315.261C45.4014 314.606 45.709 313.449 45.9238 311.789H46.832L46.5537 318H35.4941V316.916C36.0996 316.789 36.5049 316.633 36.71 316.447C36.9346 316.242 37.0469 315.91 37.0469 315.451V297.756C37.0469 297.248 36.9346 296.896 36.71 296.701C36.5146 296.535 36.1094 296.398 35.4941 296.291V295.207ZM50.1719 295.207H55.1523V296.291C54.2832 296.418 53.8486 296.735 53.8486 297.243C53.8486 297.36 53.9023 297.712 54.0098 298.298L57.0127 314.221L59.7373 298.444C59.8252 297.956 59.8691 297.561 59.8691 297.258C59.8691 296.945 59.7275 296.701 59.4443 296.525C59.3076 296.438 58.9951 296.359 58.5068 296.291V295.207H62.8281V296.291C62.3496 296.418 62.0029 296.643 61.7881 296.965C61.5146 297.365 61.3145 297.907 61.1875 298.591L57.5254 318.454H55.958L51.8271 298.239C51.583 297.087 51.0312 296.438 50.1719 296.291V295.207ZM65.4941 295.207H76.2607L76.4658 301.022H75.543C75.377 299.519 75.0547 298.405 74.5762 297.683C74.1465 297.028 73.458 296.701 72.5107 296.701H70.2549C69.7568 296.701 69.415 296.794 69.2295 296.979C69.0732 297.146 68.9951 297.482 68.9951 297.99V305.168H70.9434C71.7246 305.168 72.2617 304.836 72.5547 304.172C72.7695 303.703 72.8916 303.054 72.9209 302.224H73.8877V310.017H72.9209C72.8721 308.796 72.6914 307.922 72.3789 307.395C72.0762 306.906 71.5977 306.662 70.9434 306.662H68.9951V315.217C68.9951 315.715 69.0977 316.052 69.3027 316.228C69.5078 316.413 69.8936 316.506 70.46 316.506H72.3496C73.6094 316.506 74.4932 316.091 75.001 315.261C75.4014 314.606 75.709 313.449 75.9238 311.789H76.832L76.5537 318H65.4941V316.916C66.0996 316.789 66.5049 316.633 66.71 316.447C66.9346 316.242 67.0469 315.91 67.0469 315.451V297.756C67.0469 297.248 66.9346 296.896 66.71 296.701C66.5146 296.535 66.1094 296.398 65.4941 296.291V295.207ZM81.2559 295.207H86.7783V296.291C86.0264 296.359 85.5234 296.53 85.2695 296.804C85.0547 297.038 84.9473 297.478 84.9473 298.122V314.851C84.9473 315.495 85.0547 315.935 85.2695 316.169C85.4746 316.394 85.8555 316.506 86.4121 316.506H87.4668C89.2441 316.506 90.3428 314.685 90.7627 311.042H91.7588L91.4219 318H81.2559V316.916C81.9199 316.838 82.3789 316.667 82.6328 316.403C82.8574 316.188 82.9697 315.749 82.9697 315.085V298.122C82.9697 297.409 82.8477 296.936 82.6035 296.701C82.3789 296.486 81.9297 296.35 81.2559 296.291V295.207ZM101.529 294.621C103.16 294.621 104.518 295.666 105.602 297.756C106.793 300.051 107.389 303.024 107.389 306.677C107.389 310.212 106.856 313.078 105.792 315.275C104.718 317.473 103.287 318.571 101.5 318.571C99.7129 318.571 98.2871 317.468 97.2227 315.261C96.1582 313.073 95.626 310.202 95.626 306.647C95.626 302.702 96.3096 299.577 97.6768 297.272C98.7217 295.505 100.006 294.621 101.529 294.621ZM101.485 296.247C100.509 296.247 99.7031 297.048 99.0684 298.649C98.3164 300.534 97.9404 303.195 97.9404 306.633C97.9404 310.002 98.3164 312.634 99.0684 314.528C99.7129 316.14 100.523 316.945 101.5 316.945C102.398 316.945 103.15 316.276 103.756 314.938C104.635 313.044 105.074 310.266 105.074 306.604C105.074 302.707 104.601 299.836 103.653 297.99C103.058 296.828 102.335 296.247 101.485 296.247ZM110.685 295.207H116.617C118.268 295.207 119.581 295.749 120.558 296.833C121.661 298.054 122.213 299.704 122.213 301.784C122.213 303.874 121.661 305.437 120.558 306.472C119.415 307.556 117.955 308.098 116.178 308.098H114.259V315.451C114.259 315.959 114.376 316.311 114.61 316.506C114.845 316.691 115.323 316.828 116.046 316.916V318H110.685V316.916C111.339 316.838 111.778 316.701 112.003 316.506C112.228 316.311 112.34 315.959 112.34 315.451V297.756C112.34 297.248 112.228 296.896 112.003 296.701C111.769 296.496 111.329 296.359 110.685 296.291V295.207ZM114.259 306.604H116.148C118.727 306.604 120.016 304.968 120.016 301.696C120.016 299.997 119.679 298.732 119.005 297.902C118.351 297.102 117.477 296.701 116.383 296.701H115.519C115.011 296.701 114.669 296.794 114.493 296.979C114.337 297.136 114.259 297.473 114.259 297.99V306.604ZM125.494 295.207H136.261L136.466 301.022H135.543C135.377 299.519 135.055 298.405 134.576 297.683C134.146 297.028 133.458 296.701 132.511 296.701H130.255C129.757 296.701 129.415 296.794 129.229 296.979C129.073 297.146 128.995 297.482 128.995 297.99V305.168H130.943C131.725 305.168 132.262 304.836 132.555 304.172C132.77 303.703 132.892 303.054 132.921 302.224H133.888V310.017H132.921C132.872 308.796 132.691 307.922 132.379 307.395C132.076 306.906 131.598 306.662 130.943 306.662H128.995V315.217C128.995 315.715 129.098 316.052 129.303 316.228C129.508 316.413 129.894 316.506 130.46 316.506H132.35C133.609 316.506 134.493 316.091 135.001 315.261C135.401 314.606 135.709 313.449 135.924 311.789H136.832L136.554 318H125.494V316.916C126.1 316.789 126.505 316.633 126.71 316.447C126.935 316.242 127.047 315.91 127.047 315.451V297.756C127.047 297.248 126.935 296.896 126.71 296.701C126.515 296.535 126.109 296.398 125.494 296.291V295.207ZM140.318 295.207H146.163C147.784 295.207 149.088 295.759 150.074 296.862C151.002 297.888 151.466 299.299 151.466 301.096C151.466 302.717 151.041 304.045 150.191 305.08C149.527 305.881 148.526 306.369 147.188 306.545V306.633C148.175 306.906 148.888 307.536 149.327 308.522C149.776 309.509 150.401 311.511 151.202 314.528C151.417 315.329 151.656 315.905 151.92 316.257C152.184 316.599 152.633 316.828 153.268 316.945V318H149.913C148.78 313.166 147.926 310.114 147.35 308.845C146.852 307.731 146.217 307.175 145.445 307.175H143.673V315.451C143.673 315.998 143.771 316.379 143.966 316.594C144.151 316.779 144.532 316.887 145.108 316.916V318H140.318V316.916C140.885 316.828 141.266 316.691 141.461 316.506C141.637 316.32 141.725 315.969 141.725 315.451V297.756C141.725 297.189 141.637 296.809 141.461 296.613C141.285 296.438 140.904 296.33 140.318 296.291V295.207ZM143.673 305.681H145.416C146.607 305.681 147.564 305.285 148.287 304.494C149.01 303.723 149.371 302.58 149.371 301.066C149.371 298.156 148.253 296.701 146.017 296.701H144.845C144.396 296.701 144.083 296.794 143.907 296.979C143.751 297.146 143.673 297.482 143.673 297.99V305.681Z" fill="white"/>
<path d="M381.334 271.594H380.279C380.006 269.924 379.61 268.664 379.093 267.814C378.458 266.77 377.745 266.247 376.954 266.247C375.997 266.247 375.187 266.911 374.522 268.239C373.556 270.163 373.072 272.99 373.072 276.721C373.072 279.846 373.487 282.316 374.317 284.133C375.069 285.793 376.021 286.623 377.174 286.623C378.229 286.623 379.083 285.959 379.737 284.631C380.187 283.713 380.587 282.365 380.938 280.588L381.993 281.101C381.651 283.522 381.148 285.29 380.484 286.403C379.625 287.849 378.424 288.571 376.881 288.571C375.182 288.571 373.78 287.517 372.677 285.407C371.524 283.2 370.948 280.295 370.948 276.691C370.948 273.283 371.432 270.485 372.398 268.298C373.492 265.847 374.962 264.621 376.808 264.621C377.862 264.621 378.775 265.163 379.547 266.247C379.713 266.491 379.864 266.613 380.001 266.613C380.177 266.613 380.299 266.14 380.367 265.192H381.334V271.594ZM386.256 265.207H391.778V266.291C391.026 266.359 390.523 266.53 390.27 266.804C390.055 267.038 389.947 267.478 389.947 268.122V284.851C389.947 285.495 390.055 285.935 390.27 286.169C390.475 286.394 390.855 286.506 391.412 286.506H392.467C394.244 286.506 395.343 284.685 395.763 281.042H396.759L396.422 288H386.256V286.916C386.92 286.838 387.379 286.667 387.633 286.403C387.857 286.188 387.97 285.749 387.97 285.085V268.122C387.97 267.409 387.848 266.936 387.604 266.701C387.379 266.486 386.93 266.35 386.256 266.291V265.207ZM403.585 265.207H409.4V266.291C408.658 266.35 408.15 266.477 407.877 266.672C407.613 266.857 407.481 267.238 407.481 267.814V285.393C407.481 285.91 407.633 286.291 407.936 286.535C408.141 286.691 408.629 286.818 409.4 286.916V288H403.585V286.916C404.366 286.818 404.879 286.672 405.123 286.477C405.377 286.252 405.504 285.891 405.504 285.393V267.814C405.504 267.238 405.372 266.857 405.108 266.672C404.835 266.477 404.327 266.35 403.585 266.291V265.207ZM426.334 271.594H425.279C425.006 269.924 424.61 268.664 424.093 267.814C423.458 266.77 422.745 266.247 421.954 266.247C420.997 266.247 420.187 266.911 419.522 268.239C418.556 270.163 418.072 272.99 418.072 276.721C418.072 279.846 418.487 282.316 419.317 284.133C420.069 285.793 421.021 286.623 422.174 286.623C423.229 286.623 424.083 285.959 424.737 284.631C425.187 283.713 425.587 282.365 425.938 280.588L426.993 281.101C426.651 283.522 426.148 285.29 425.484 286.403C424.625 287.849 423.424 288.571 421.881 288.571C420.182 288.571 418.78 287.517 417.677 285.407C416.524 283.2 415.948 280.295 415.948 276.691C415.948 273.283 416.432 270.485 417.398 268.298C418.492 265.847 419.962 264.621 421.808 264.621C422.862 264.621 423.775 265.163 424.547 266.247C424.713 266.491 424.864 266.613 425.001 266.613C425.177 266.613 425.299 266.14 425.367 265.192H426.334V271.594ZM430.494 265.207H435.284V266.291C434.757 266.35 434.386 266.486 434.171 266.701C433.995 266.887 433.907 267.238 433.907 267.756V276.691L438.346 267.756C438.492 267.463 438.565 267.238 438.565 267.082C438.565 266.643 438.175 266.379 437.394 266.291V265.207H442.008V266.291C441.441 266.398 441.007 266.56 440.704 266.774C440.392 266.999 440.074 267.424 439.752 268.049L436.734 274.143L441.085 285.334C441.271 285.822 441.52 286.203 441.832 286.477C442.037 286.643 442.394 286.789 442.901 286.916V288H437.965V286.916C438.697 286.857 439.063 286.579 439.063 286.081C439.063 285.866 439.015 285.627 438.917 285.363L435.621 276.281L433.907 279.387V285.451C433.907 285.959 434.01 286.32 434.215 286.535C434.41 286.74 434.767 286.867 435.284 286.916V288H430.494V286.916C431.1 286.828 431.495 286.682 431.681 286.477C431.866 286.271 431.959 285.93 431.959 285.451V267.756C431.959 267.219 431.847 266.848 431.622 266.643C431.427 266.467 431.051 266.35 430.494 266.291V265.207ZM370.318 295.207H376.163C377.784 295.207 379.088 295.759 380.074 296.862C381.002 297.888 381.466 299.299 381.466 301.096C381.466 302.717 381.041 304.045 380.191 305.08C379.527 305.881 378.526 306.369 377.188 306.545V306.633C378.175 306.906 378.888 307.536 379.327 308.522C379.776 309.509 380.401 311.511 381.202 314.528C381.417 315.329 381.656 315.905 381.92 316.257C382.184 316.599 382.633 316.828 383.268 316.945V318H379.913C378.78 313.166 377.926 310.114 377.35 308.845C376.852 307.731 376.217 307.175 375.445 307.175H373.673V315.451C373.673 315.998 373.771 316.379 373.966 316.594C374.151 316.779 374.532 316.887 375.108 316.916V318H370.318V316.916C370.885 316.828 371.266 316.691 371.461 316.506C371.637 316.32 371.725 315.969 371.725 315.451V297.756C371.725 297.189 371.637 296.809 371.461 296.613C371.285 296.438 370.904 296.33 370.318 296.291V295.207ZM373.673 305.681H375.416C376.607 305.681 377.564 305.285 378.287 304.494C379.01 303.723 379.371 302.58 379.371 301.066C379.371 298.156 378.253 296.701 376.017 296.701H374.845C374.396 296.701 374.083 296.794 373.907 296.979C373.751 297.146 373.673 297.482 373.673 297.99V305.681ZM388.585 295.207H394.4V296.291C393.658 296.35 393.15 296.477 392.877 296.672C392.613 296.857 392.481 297.238 392.481 297.814V315.393C392.481 315.91 392.633 316.291 392.936 316.535C393.141 316.691 393.629 316.818 394.4 316.916V318H388.585V316.916C389.366 316.818 389.879 316.672 390.123 316.477C390.377 316.252 390.504 315.891 390.504 315.393V297.814C390.504 297.238 390.372 296.857 390.108 296.672C389.835 296.477 389.327 296.35 388.585 296.291V295.207ZM410.514 318.571L409.854 315.686C409.103 317.609 407.931 318.571 406.339 318.571C404.815 318.571 403.536 317.57 402.501 315.568C401.31 313.273 400.714 310.275 400.714 306.574C400.714 303.176 401.251 300.363 402.325 298.137C403.448 295.793 404.918 294.621 406.734 294.621C407.965 294.621 408.917 295.104 409.591 296.071C409.806 296.394 409.977 296.555 410.104 296.555C410.357 296.555 410.519 296.101 410.587 295.192H411.48V301.228H410.455C410.133 299.685 409.781 298.576 409.4 297.902C408.766 296.799 407.921 296.247 406.866 296.247C405.782 296.247 404.894 297.048 404.2 298.649C403.36 300.583 402.94 303.244 402.94 306.633C402.94 310.256 403.434 313.059 404.42 315.041C405.045 316.311 405.738 316.945 406.5 316.945C407.418 316.945 408.17 316.428 408.756 315.393C409.312 314.387 409.591 313.288 409.591 312.097V309.621C409.591 308.986 409.474 308.537 409.239 308.273C409.093 308.117 408.658 307.99 407.936 307.893V306.809H412.975V307.893C412.408 308 412.037 308.156 411.861 308.361C411.686 308.596 411.598 309.089 411.598 309.841V318.571H410.514ZM415.318 295.207H420.05V296.291C419.513 296.359 419.146 296.486 418.951 296.672C418.766 296.857 418.673 297.219 418.673 297.756V305.153H424.327V297.756C424.327 297.219 424.239 296.857 424.063 296.672C423.868 296.486 423.497 296.359 422.95 296.291V295.207H427.682V296.291C427.125 296.35 426.744 296.477 426.539 296.672C426.363 296.848 426.275 297.209 426.275 297.756V315.451C426.275 315.969 426.363 316.315 426.539 316.491C426.734 316.687 427.115 316.828 427.682 316.916V318H422.921V316.916C423.507 316.828 423.893 316.677 424.078 316.462C424.244 316.286 424.327 315.949 424.327 315.451V306.647H418.673V315.451C418.673 315.969 418.766 316.315 418.951 316.491C419.137 316.687 419.513 316.828 420.079 316.916V318H415.318V316.916C415.904 316.828 416.29 316.677 416.476 316.462C416.642 316.286 416.725 315.949 416.725 315.451V297.756C416.725 297.219 416.637 296.857 416.461 296.672C416.266 296.477 415.885 296.35 415.318 296.291V295.207ZM430.758 295.207H442.228L442.491 301.169H441.568C441.354 299.528 441.051 298.41 440.66 297.814C440.172 297.072 439.493 296.701 438.624 296.701H437.481V315.451C437.481 315.959 437.594 316.311 437.818 316.506C438.043 316.701 438.492 316.838 439.166 316.916V318H433.819V316.916C434.483 316.838 434.933 316.701 435.167 316.506C435.392 316.32 435.504 315.969 435.504 315.451V296.701H434.361C433.414 296.701 432.701 297.131 432.223 297.99C431.871 298.625 431.603 299.685 431.417 301.169H430.494L430.758 295.207ZM459.396 295.207H463.175L466.471 311.701L469.664 295.207H473.502V296.291C472.984 296.389 472.662 296.496 472.535 296.613C472.379 296.77 472.301 297.131 472.301 297.697V315.451C472.301 315.979 472.379 316.34 472.535 316.535C472.711 316.73 473.033 316.857 473.502 316.916V318H469.181V316.916C469.698 316.828 470.035 316.691 470.191 316.506C470.377 316.291 470.47 315.939 470.47 315.451V298.21H470.353L466.866 315.715H465.46L461.974 297.814H461.856V315.451C461.856 315.949 461.954 316.311 462.149 316.535C462.306 316.691 462.657 316.818 463.204 316.916V318H459.396V316.916C459.874 316.838 460.187 316.711 460.333 316.535C460.489 316.35 460.567 315.988 460.567 315.451V297.727C460.567 297.229 460.509 296.892 460.392 296.716C460.235 296.501 459.903 296.359 459.396 296.291V295.207ZM475.494 295.207H486.261L486.466 301.022H485.543C485.377 299.519 485.055 298.405 484.576 297.683C484.146 297.028 483.458 296.701 482.511 296.701H480.255C479.757 296.701 479.415 296.794 479.229 296.979C479.073 297.146 478.995 297.482 478.995 297.99V305.168H480.943C481.725 305.168 482.262 304.836 482.555 304.172C482.77 303.703 482.892 303.054 482.921 302.224H483.888V310.017H482.921C482.872 308.796 482.691 307.922 482.379 307.395C482.076 306.906 481.598 306.662 480.943 306.662H478.995V315.217C478.995 315.715 479.098 316.052 479.303 316.228C479.508 316.413 479.894 316.506 480.46 316.506H482.35C483.609 316.506 484.493 316.091 485.001 315.261C485.401 314.606 485.709 313.449 485.924 311.789H486.832L486.554 318H475.494V316.916C476.1 316.789 476.505 316.633 476.71 316.447C476.935 316.242 477.047 315.91 477.047 315.451V297.756C477.047 297.248 476.935 296.896 476.71 296.701C476.515 296.535 476.109 296.398 475.494 296.291V295.207ZM490.084 295.207H494.156L500.133 313.679H500.25V297.756C500.25 297.287 500.138 296.955 499.913 296.76C499.649 296.535 499.22 296.379 498.624 296.291V295.207H503.165V296.291C502.579 296.379 502.159 296.535 501.905 296.76C501.681 296.965 501.568 297.297 501.568 297.756V318.366H499.737L493.072 297.932H492.955V315.451C492.955 315.988 493.077 316.369 493.321 316.594C493.507 316.76 493.917 316.867 494.552 316.916V318H490.084V316.916C490.758 316.818 491.183 316.672 491.358 316.477C491.544 316.271 491.637 315.93 491.637 315.451V297.756C491.637 297.229 491.534 296.877 491.329 296.701C491.134 296.525 490.719 296.389 490.084 296.291V295.207ZM505.055 295.207H509.845V296.291C509.347 296.35 508.99 296.486 508.775 296.701C508.57 296.906 508.468 297.258 508.468 297.756V309.548C508.468 312.067 508.653 313.815 509.024 314.792C509.503 316.071 510.431 316.711 511.808 316.711C513.155 316.711 514.054 316.076 514.503 314.807C514.903 313.684 515.104 311.887 515.104 309.416V297.756C515.104 297.287 515.016 296.95 514.84 296.745C514.635 296.511 514.273 296.359 513.756 296.291V295.207H517.799V296.291C517.242 296.389 516.871 296.525 516.686 296.701C516.51 296.887 516.422 297.238 516.422 297.756V309.416C516.422 311.613 516.31 313.239 516.085 314.294C515.47 317.146 514.015 318.571 511.72 318.571C509.845 318.571 508.443 317.771 507.516 316.169C507.057 315.388 506.764 314.338 506.637 313.02C506.559 312.15 506.52 310.993 506.52 309.548V297.756C506.52 297.189 506.417 296.809 506.212 296.613C506.036 296.438 505.65 296.33 505.055 296.291V295.207Z" fill="white"/>
<path d="M179.659 23.0117H185.958L191.451 50.502L196.773 23.0117H203.17V24.8184C202.307 24.9811 201.77 25.1602 201.559 25.3555C201.298 25.6159 201.168 26.2181 201.168 27.1621V56.752C201.168 57.6309 201.298 58.2331 201.559 58.5586C201.852 58.8841 202.389 59.0957 203.17 59.1934V61H195.968V59.1934C196.83 59.0469 197.392 58.819 197.652 58.5098C197.962 58.1517 198.116 57.5658 198.116 56.752V28.0166H197.921L192.11 57.1914H189.767L183.956 27.3574H183.761V56.752C183.761 57.582 183.924 58.1842 184.249 58.5586C184.509 58.819 185.095 59.0306 186.007 59.1934V61H179.659V59.1934C180.457 59.0632 180.978 58.8516 181.222 58.5586C181.482 58.2493 181.612 57.6471 181.612 56.752V27.2109C181.612 26.3809 181.515 25.8193 181.319 25.5264C181.059 25.1683 180.506 24.9323 179.659 24.8184V23.0117ZM206.49 23.0117H224.435L224.776 32.7041H223.238C222.962 30.1976 222.424 28.3421 221.627 27.1377C220.911 26.0472 219.763 25.502 218.185 25.502H214.425C213.595 25.502 213.025 25.6566 212.716 25.9658C212.455 26.2425 212.325 26.804 212.325 27.6504V39.6133H215.572C216.874 39.6133 217.77 39.0599 218.258 37.9531C218.616 37.1719 218.819 36.0895 218.868 34.7061H220.479V47.6943H218.868C218.787 45.6598 218.486 44.2031 217.965 43.3242C217.46 42.5104 216.663 42.1035 215.572 42.1035H212.325V56.3613C212.325 57.1914 212.496 57.7529 212.838 58.0459C213.18 58.3551 213.823 58.5098 214.767 58.5098H217.916C220.016 58.5098 221.489 57.818 222.335 56.4346C223.002 55.3441 223.515 53.4154 223.873 50.6484H225.387L224.923 61H206.49V59.1934C207.499 58.9818 208.175 58.7214 208.517 58.4121C208.891 58.0703 209.078 57.5169 209.078 56.752V27.2598C209.078 26.4134 208.891 25.8275 208.517 25.502C208.191 25.2253 207.516 24.9974 206.49 24.8184V23.0117Z" fill="white"/>
<path d="M474.659 23.0117H480.958L486.451 50.502L491.773 23.0117H498.17V24.8184C497.307 24.9811 496.77 25.1602 496.559 25.3555C496.298 25.6159 496.168 26.2181 496.168 27.1621V56.752C496.168 57.6309 496.298 58.2331 496.559 58.5586C496.852 58.8841 497.389 59.0957 498.17 59.1934V61H490.968V59.1934C491.83 59.0469 492.392 58.819 492.652 58.5098C492.962 58.1517 493.116 57.5658 493.116 56.752V28.0166H492.921L487.11 57.1914H484.767L478.956 27.3574H478.761V56.752C478.761 57.582 478.924 58.1842 479.249 58.5586C479.509 58.819 480.095 59.0306 481.007 59.1934V61H474.659V59.1934C475.457 59.0632 475.978 58.8516 476.222 58.5586C476.482 58.2493 476.612 57.6471 476.612 56.752V27.2109C476.612 26.3809 476.515 25.8193 476.319 25.5264C476.059 25.1683 475.506 24.9323 474.659 24.8184V23.0117ZM501.49 23.0117H519.435L519.776 32.7041H518.238C517.962 30.1976 517.424 28.3421 516.627 27.1377C515.911 26.0472 514.763 25.502 513.185 25.502H509.425C508.595 25.502 508.025 25.6566 507.716 25.9658C507.455 26.2425 507.325 26.804 507.325 27.6504V39.6133H510.572C511.874 39.6133 512.77 39.0599 513.258 37.9531C513.616 37.1719 513.819 36.0895 513.868 34.7061H515.479V47.6943H513.868C513.787 45.6598 513.486 44.2031 512.965 43.3242C512.46 42.5104 511.663 42.1035 510.572 42.1035H507.325V56.3613C507.325 57.1914 507.496 57.7529 507.838 58.0459C508.18 58.3551 508.823 58.5098 509.767 58.5098H512.916C515.016 58.5098 516.489 57.818 517.335 56.4346C518.002 55.3441 518.515 53.4154 518.873 50.6484H520.387L519.923 61H501.49V59.1934C502.499 58.9818 503.175 58.7214 503.517 58.4121C503.891 58.0703 504.078 57.5169 504.078 56.752V27.2598C504.078 26.4134 503.891 25.8275 503.517 25.502C503.191 25.2253 502.516 24.9974 501.49 24.8184V23.0117ZM525.807 23.0117H532.594L542.555 53.7979H542.75V27.2598C542.75 26.4785 542.563 25.9251 542.188 25.5996C541.749 25.2253 541.033 24.9648 540.04 24.8184V23.0117H547.608V24.8184C546.632 24.9648 545.932 25.2253 545.509 25.5996C545.134 25.9414 544.947 26.4948 544.947 27.2598V61.6104H541.896L530.787 27.5527H530.592V56.752C530.592 57.6471 530.795 58.2819 531.202 58.6562C531.511 58.9329 532.195 59.112 533.253 59.1934V61H525.807V59.1934C526.93 59.0306 527.638 58.7865 527.931 58.4609C528.24 58.1191 528.395 57.5495 528.395 56.752V27.2598C528.395 26.3809 528.224 25.7949 527.882 25.502C527.556 25.209 526.865 24.9811 525.807 24.8184V23.0117ZM550.758 23.0117H558.741V24.8184C557.911 24.916 557.317 25.1439 556.959 25.502C556.617 25.8438 556.446 26.4297 556.446 27.2598V46.9131C556.446 51.1123 556.756 54.0257 557.374 55.6533C558.172 57.7855 559.718 58.8516 562.013 58.8516C564.259 58.8516 565.756 57.7936 566.505 55.6777C567.172 53.806 567.506 50.8112 567.506 46.6934V27.2598C567.506 26.4785 567.359 25.917 567.066 25.5752C566.725 25.1846 566.122 24.9323 565.26 24.8184V23.0117H571.998V24.8184C571.07 24.9811 570.452 25.209 570.143 25.502C569.85 25.8112 569.703 26.3971 569.703 27.2598V46.6934C569.703 50.3555 569.516 53.0654 569.142 54.8232C568.116 59.5758 565.691 61.9521 561.866 61.9521C558.741 61.9521 556.406 60.6175 554.859 57.9482C554.094 56.6462 553.606 54.8965 553.395 52.6992C553.264 51.2507 553.199 49.3219 553.199 46.9131V27.2598C553.199 26.3158 553.028 25.681 552.687 25.3555C552.394 25.0625 551.751 24.8835 550.758 24.8184V23.0117Z" fill="white"/>
<rect x="0.5" y="0.5" width="247" height="343" stroke="#D9D9D9"/>
<rect x="350.5" y="0.5" width="247" height="343" stroke="#D9D9D9"/>
<path d="M248 1V343.5L298.5 174.5L248 1Z" fill="#D9D9D9"/>
<path d="M350.5 1V343.5L300 174.5L350.5 1Z" fill="#D9D9D9"/>
<circle cx="464" cy="180" r="32" fill="#D9D9D9"/>
<circle cx="473.5" cy="135.5" r="9.5" fill="#D9D9D9"/>
<line x1="467.5" y1="155.5" x2="511.5" y2="155.5" stroke="#D9D9D9" stroke-width="15" stroke-linecap="round"/>
<rect x="104" y="184" width="8" height="40" rx="4" fill="#D9D9D9"/>
<rect x="126" y="184" width="7" height="40" rx="3.5" fill="#D9D9D9"/>
<rect x="115" y="184" width="7" height="40" rx="3.5" fill="#D9D9D9"/>
<rect x="136" y="184" width="8" height="40" rx="4" fill="#D9D9D9"/>
<ellipse cx="124" cy="159.5" rx="53" ry="45.5" fill="#D9D9D9"/>
<ellipse cx="106" cy="176" rx="13" ry="11" fill="black"/>
<ellipse cx="142" cy="176" rx="13" ry="11" fill="black"/>
<line x1="74" y1="175.5" x2="177" y2="175.5" stroke="black"/>
</svg>
