<svg width="108" height="90" viewBox="0 0 108 90" fill="none" xmlns="http://www.w3.org/2000/svg">
<g style="mix-blend-mode:exclusion">
<ellipse cx="58.3163" cy="47.855" rx="42.9682" ry="24.2123" transform="rotate(-28.6626 58.3163 47.855)" fill="#D9D9D9"/>
</g>
<path d="M86.5805 21.485C89.6625 27.1233 88.4412 34.5361 83.7639 42.0399C79.096 49.5285 71.0401 57.0038 60.6899 62.6615C50.3398 68.3193 39.6983 71.0647 30.8747 70.951C22.0333 70.8371 15.1342 67.8631 12.0522 62.2249C8.97011 56.5867 10.1914 49.1738 14.8687 41.6701C19.5366 34.1815 27.5925 26.7062 37.9427 21.0484C48.2929 15.3907 58.9343 12.6453 67.7579 12.759C76.5993 12.8729 83.4984 15.8468 86.5805 21.485Z" fill="black" stroke="#D9D9D9"/>
<path d="M33.3161 46.4891L34.0088 46.0892L40.6369 53.3448C40.8028 53.5227 40.9584 53.6328 41.1039 53.6751C41.2494 53.7174 41.433 53.6982 41.6548 53.6175L41.9077 54.0556L39.8594 55.2383L39.6064 54.8002C39.9197 54.5772 40.0183 54.3651 39.9021 54.1638C39.8656 54.1006 39.8113 54.0294 39.7392 53.95L37.9671 51.8788L36.197 52.9008L37.0115 55.2959C37.0161 55.3038 37.0232 55.3207 37.0329 55.3467C37.0524 55.3986 37.0796 55.4776 37.1145 55.5837C37.1317 55.6317 37.1506 55.6734 37.1711 55.7089C37.2258 55.8037 37.3402 55.856 37.5143 55.866C37.6393 55.8728 37.7584 55.8513 37.8718 55.8016L38.1248 56.2397L36.4375 57.2138L36.1846 56.7758C36.3315 56.6383 36.4208 56.5104 36.4525 56.3922C36.4892 56.2552 36.4652 56.0586 36.3804 55.8023L33.3161 46.4891ZM34.2937 47.6217L35.9194 52.2559L37.4942 51.3467L34.2937 47.6217ZM37.4951 44.321L39.8454 42.9641C40.4966 42.5881 41.1128 42.4797 41.6941 42.6387C42.3664 42.8189 42.8906 43.2346 43.2666 43.8858C43.5856 44.4383 43.7222 44.9804 43.6766 45.5119C43.6301 45.9966 43.4127 46.4221 43.0243 46.7884L43.0516 46.8357C43.8026 46.66 44.4814 46.7601 45.0879 47.1362C45.4972 47.3893 45.8431 47.7605 46.1256 48.2499C46.595 49.0629 46.7259 49.832 46.5183 50.557C46.3257 51.226 45.8979 51.7519 45.2348 52.1347L42.8135 53.5327L42.5606 53.0946C42.946 52.8142 43.0373 52.4984 42.8345 52.1471L38.685 44.9601C38.5825 44.7825 38.4622 44.6836 38.3242 44.6633C38.1924 44.6446 38.0004 44.6766 37.7481 44.7591L37.4951 44.321ZM41.1987 47.5503L41.9269 47.1299C42.4518 46.8268 42.7404 46.3787 42.7926 45.7855C42.829 45.3382 42.7048 44.8679 42.42 44.3746C42.0987 43.8181 41.7018 43.4815 41.2293 43.3649C40.9101 43.2861 40.5532 43.3606 40.1585 43.5884L39.7204 43.8414C39.3889 44.0328 39.3382 44.3278 39.5684 44.7264L41.1987 47.5503ZM41.5474 48.1541L43.5264 51.5819C43.638 51.7753 43.751 51.889 43.8654 51.9229C44.021 51.9646 44.2073 51.9228 44.4244 51.7975L44.8388 51.5582C45.3006 51.2916 45.5718 50.8956 45.6526 50.3701C45.7329 49.8712 45.6022 49.3257 45.2604 48.7337C44.8867 48.0864 44.4352 47.6735 43.9058 47.495C43.3991 47.3192 42.905 47.3703 42.4235 47.6483L41.5474 48.1541ZM45.8597 39.176C46.5188 38.7955 47.3112 38.901 48.2369 39.4927C49.2539 40.1422 50.1885 41.205 51.0407 42.6811C51.8656 44.1098 52.3192 45.3923 52.4018 46.5287C52.4803 47.6674 52.1585 48.4452 51.4362 48.8622C50.714 49.2792 49.8802 49.1659 48.9351 48.5223C47.9945 47.8866 47.1094 46.8505 46.28 45.4138C45.3594 43.8194 44.9066 42.3969 44.9213 41.1465C44.9312 40.1883 45.244 39.5315 45.8597 39.176ZM46.2213 39.8434C45.8266 40.0713 45.6879 40.5829 45.805 41.3783C45.9409 42.3154 46.4099 43.4786 47.212 44.8679C47.9981 46.2295 48.7642 47.2054 49.5101 47.7956C50.1466 48.2965 50.6621 48.4329 51.0568 48.2051C51.4199 47.9954 51.5677 47.5496 51.5002 46.8677C51.4134 45.8969 50.9427 44.6715 50.0882 43.1915C49.179 41.6168 48.3177 40.5669 47.5042 40.042C46.9923 39.7114 46.5647 39.6452 46.2213 39.8434ZM49.4419 37.4236L51.3778 36.3059L51.6307 36.744C51.4431 36.8839 51.3309 37.0223 51.2942 37.1592C51.2592 37.29 51.2998 37.456 51.416 37.6573L54.1675 42.4229C54.7553 43.4412 55.2382 44.1044 55.6161 44.4125C56.1079 44.8178 56.6321 44.8599 57.1886 44.5386C57.7333 44.2241 57.9483 43.7579 57.8336 43.1401C57.7334 42.5928 57.395 41.8198 56.8185 40.8213L54.0978 36.1089C53.9884 35.9195 53.8743 35.8038 53.7554 35.762C53.6178 35.7151 53.4365 35.7382 53.2113 35.8314L52.9584 35.3933L54.5924 34.4499L54.8453 34.888C54.6431 35.0574 54.525 35.1992 54.4911 35.3135C54.4633 35.4295 54.5098 35.5921 54.6306 35.8013L57.3513 40.5137C57.864 41.4017 58.198 42.0851 58.3533 42.5637C58.77 43.8597 58.5147 44.7755 57.5872 45.3109C56.8294 45.7484 56.0762 45.7518 55.3276 45.321C54.9598 45.1124 54.5964 44.7564 54.2375 44.2533C54.0031 43.9202 53.7173 43.4616 53.3801 42.8775L50.6286 38.1119C50.4965 37.8829 50.3661 37.7529 50.2377 37.7219C50.1256 37.6918 49.9447 37.7384 49.6948 37.8616L49.4419 37.4236ZM55.7882 33.7595L60.4237 31.0832L61.9213 33.4312L61.5484 33.6465C61.0787 33.0336 60.6955 32.6523 60.3986 32.5027C60.0281 32.3167 59.6672 32.3251 59.3159 32.5279L58.8542 32.7945L63.2292 40.3722C63.3477 40.5774 63.4751 40.6933 63.6114 40.7199C63.7478 40.7464 63.9612 40.6968 64.2518 40.5712L64.5047 41.0092L62.3439 42.2568L62.091 41.8187C62.3411 41.6322 62.4908 41.4721 62.5399 41.3385C62.5874 41.2111 62.5507 41.0428 62.43 40.8336L58.055 33.2559L57.5932 33.5225C57.2104 33.7436 57.0225 34.0835 57.0296 34.5425C57.0357 34.8811 57.1744 35.372 57.4457 36.0152L57.0728 36.2305L55.7882 33.7595Z" fill="white"/>
</svg>
